<svg version="1.1" id="Layer_1" xmlns="http://www.w3.org/2000/svg" xmlns:xlink="http://www.w3.org/1999/xlink" x="0px" y="0px"
	 width="100%" viewBox="0 0 1080 1080" enable-background="new 0 0 1080 1080" xml:space="preserve">
<path fill="#000000" opacity="1.000000" stroke="none" 
	d="
M604.000000,1081.000000 
	C402.689850,1081.000000 201.879684,1081.000000 1.034763,1081.000000 
	C1.034763,721.064697 1.034763,361.129425 1.034763,1.097076 
	C360.893738,1.097076 720.787476,1.097076 1080.840576,1.097076 
	C1080.840576,360.999939 1080.840576,720.999939 1080.840576,1081.000000 
	C922.128967,1081.000000 763.314514,1081.000000 604.000000,1081.000000 
M278.672302,628.736084 
	C278.833344,627.833862 278.994385,626.931580 279.586212,625.912537 
	C279.862152,625.742493 280.011047,625.495789 280.731171,625.004028 
	C281.783844,623.015625 282.836517,621.027222 284.036804,618.645996 
	C284.036804,618.645996 284.033539,618.226379 284.472015,617.950073 
	C284.611603,617.653320 284.751190,617.356506 285.036224,616.644287 
	C285.036224,616.644287 285.026855,616.204102 285.454102,615.934998 
	C285.592163,615.646912 285.730255,615.358826 286.125671,614.582642 
	C286.428101,614.130981 286.730560,613.679321 287.472534,612.953064 
	C287.610077,612.656006 287.747620,612.358948 288.176025,611.468689 
	C288.488129,610.675598 288.800232,609.882446 289.653381,608.672607 
	C291.204834,606.195923 292.834473,603.764404 294.294037,601.234741 
	C300.113770,591.147766 305.880524,581.030273 312.033234,570.301514 
	C316.712219,561.928650 321.129120,553.394226 326.159058,545.237793 
	C329.717255,539.467834 334.105194,534.209534 338.743561,529.074829 
	C346.928589,540.982666 355.029877,552.949097 363.321411,564.782288 
	C372.174957,577.417664 381.249969,589.897522 390.149719,602.500793 
	C397.489441,612.894897 404.741699,623.351135 411.978058,633.817627 
	C415.381653,638.740479 418.644958,643.441528 425.254913,644.828979 
	C433.700104,646.601562 445.603760,640.661682 447.722992,632.409546 
	C448.803741,628.201233 448.884644,623.671265 448.950043,619.279785 
	C449.111267,608.456787 449.045410,597.629578 448.994843,586.804382 
	C448.675659,518.462585 448.310669,450.121002 448.049591,381.779022 
	C448.028320,376.212921 444.794373,372.406189 440.938202,369.778168 
	C437.300903,367.299316 432.346436,364.965759 428.235291,365.355042 
	C420.521179,366.085510 414.673523,371.076385 410.154510,378.208008 
	C397.893829,397.327362 385.633148,416.446716 373.073547,436.158203 
	C367.610352,444.350708 362.239624,452.606964 356.649597,460.712006 
	C353.261780,465.623932 349.534454,470.301727 345.284851,474.865753 
	C339.202301,466.093262 333.142517,457.304871 327.030365,448.553040 
	C321.674896,440.884552 316.151489,433.331299 310.895081,425.596100 
	C299.851807,409.344879 288.969482,392.984375 277.950226,376.716736 
	C273.301910,369.854431 266.477844,364.576508 258.547211,365.403931 
	C248.611755,366.440521 239.963196,372.279266 239.976501,385.638092 
	C240.028595,437.933807 239.998123,490.229614 239.998184,542.525391 
	C239.998199,570.172180 240.012756,597.819031 239.987366,625.465820 
	C239.981140,632.248169 242.753876,638.435303 248.007324,641.719482 
	C259.970001,649.197937 272.322937,644.598267 277.673798,630.815369 
	C277.821655,630.260315 277.969513,629.705200 278.672302,628.736084 
M731.991211,570.715881 
	C741.633728,570.804932 751.378723,571.811401 760.892578,570.748596 
	C772.524353,569.449280 781.553223,562.958557 786.406067,551.969604 
	C793.615967,535.643250 787.089844,512.977905 766.715759,507.820160 
	C758.233887,505.672974 750.068604,502.159515 741.939209,498.828491 
	C740.231201,498.128632 737.940613,495.065125 738.325928,493.861755 
	C739.039185,491.634521 741.201843,488.938873 743.338989,488.260956 
	C752.810791,485.256378 761.837585,489.387299 767.463501,496.126862 
	C769.735413,498.848389 771.440063,498.317932 773.454407,497.016968 
	C778.281372,493.899445 782.944458,490.528015 787.402588,487.446442 
	C791.623291,492.114777 797.225403,486.921448 802.005066,489.766235 
	C802.005066,490.995850 802.005188,492.623444 802.005066,494.251038 
	C802.003662,511.911072 801.961609,529.571228 802.016724,547.231079 
	C802.047852,557.186157 809.638794,568.068298 818.890015,569.806213 
	C830.515930,571.990112 842.296814,572.074219 853.734985,568.478333 
	C853.734985,560.201599 853.734985,552.260193 853.734985,543.678589 
	C849.587402,544.383362 845.758850,544.926575 841.978943,545.706177 
	C838.147339,546.496399 833.987122,544.566650 833.020996,540.631775 
	C831.828552,535.775269 831.215759,530.765259 830.555786,525.794617 
	C830.278625,523.706909 830.528442,521.550110 830.528870,519.424683 
	C830.531067,509.345642 830.529785,499.266571 830.529785,488.823242 
	C838.963745,488.823242 846.373108,488.823242 853.726868,488.823242 
	C853.726868,480.697937 853.726868,472.960419 853.726868,464.840637 
	C845.856079,464.840637 838.257202,464.840637 830.093506,464.840637 
	C830.093506,454.697632 830.093506,444.943237 830.093506,433.883575 
	C820.936096,437.581635 812.664978,440.775391 804.561218,444.348877 
	C803.314514,444.898621 802.203369,447.160706 802.120117,448.690247 
	C801.825928,454.095215 802.005493,459.525940 802.005493,464.994293 
	C798.306335,464.994293 795.309204,465.046417 792.314697,464.979736 
	C789.278320,464.912140 787.707031,465.973053 787.939758,469.348480 
	C788.181030,472.848511 787.993469,476.378113 787.993469,478.702484 
	C782.503357,474.797852 777.241028,470.280151 771.295532,467.000854 
	C761.335693,461.507446 750.133545,459.424530 739.259949,462.314362 
	C729.824280,464.822052 720.570862,468.565216 714.082703,477.346191 
	C709.698364,483.279846 708.062317,489.806335 708.284485,496.243622 
	C708.763489,510.121246 717.711060,518.696777 729.798706,523.824890 
	C738.301819,527.432251 747.315186,529.821472 755.958801,533.125916 
	C757.640320,533.768738 759.226257,535.924255 759.870728,537.733215 
	C760.951416,540.766235 759.093018,543.144775 756.607361,544.765503 
	C750.422241,548.798401 734.080750,546.730713 728.978210,541.306580 
	C726.055725,538.199829 723.238220,534.994324 719.952942,531.369324 
	C714.761963,535.947693 710.125305,540.543030 704.942932,544.406372 
	C702.112671,546.516235 702.616760,548.303528 704.033569,550.373901 
	C710.758789,560.201599 718.808411,568.283691 731.991211,570.715881 
M498.997223,505.500000 
	C498.997223,526.595703 498.997223,547.691406 498.997223,568.714233 
	C509.645966,568.714233 519.719055,568.714233 530.185669,568.714233 
	C530.185669,554.020447 530.185669,539.611389 530.185669,524.946594 
	C536.061951,524.946594 541.552612,524.707825 547.015381,524.996277 
	C558.404053,525.597717 568.798279,523.405396 579.302002,518.292419 
	C591.124268,512.537659 596.084290,502.070129 599.521606,491.477081 
	C602.724487,481.606659 603.449463,470.224823 597.833435,460.278229 
	C594.196106,453.835938 590.480530,446.912262 585.100952,442.106018 
	C577.597107,435.401917 567.846375,432.137146 557.537415,432.043060 
	C539.706909,431.880280 521.872620,432.105286 504.042603,431.914215 
	C500.091705,431.871857 498.880951,433.004761 498.912262,437.005585 
	C499.088226,459.502563 498.997162,482.001648 498.997223,505.500000 
M600.010437,526.107788 
	C601.019165,530.341614 601.698730,534.687378 603.094482,538.789490 
	C608.640808,555.089783 619.378174,566.729614 636.346313,570.385437 
	C645.113342,572.274292 654.638550,571.546143 663.729431,570.832214 
	C679.848999,569.566467 690.259338,559.290039 697.911560,546.202271 
	C705.377625,533.432800 706.378113,519.378479 704.033081,504.930878 
	C701.578430,489.807770 694.025940,477.283844 681.384338,469.523895 
	C668.557312,461.650116 654.104431,458.550964 638.547607,463.247498 
	C623.903015,467.668610 612.807434,475.247894 605.796692,489.292480 
	C600.020752,500.863251 599.783752,512.872986 600.010437,526.107788 
z"/>
<path fill="#FDFDFD" opacity="1.000000" stroke="none" 
	d="
M277.120728,631.010559 
	C272.322937,644.598267 259.970001,649.197937 248.007324,641.719482 
	C242.753876,638.435303 239.981140,632.248169 239.987366,625.465820 
	C240.012756,597.819031 239.998199,570.172180 239.998184,542.525391 
	C239.998123,490.229614 240.028595,437.933807 239.976501,385.638092 
	C239.963196,372.279266 248.611755,366.440521 258.547211,365.403931 
	C266.477844,364.576508 273.301910,369.854431 277.950226,376.716736 
	C288.969482,392.984375 299.851807,409.344879 310.895081,425.596100 
	C316.151489,433.331299 321.674896,440.884552 327.030365,448.553040 
	C333.142517,457.304871 339.202301,466.093262 345.747284,475.325531 
	C346.694855,477.159271 346.926941,478.700684 347.706909,479.879608 
	C352.186371,486.650208 356.733124,493.379089 361.416199,500.009766 
	C362.306488,501.270264 363.910919,502.026337 365.163818,503.362152 
	C373.488007,515.366028 381.909363,526.970032 390.157043,538.696228 
	C396.874786,548.247192 403.384705,557.944336 409.986755,567.576660 
	C410.325317,567.421509 410.663910,567.266296 411.002472,567.111145 
	C411.002472,532.407349 411.002472,497.703552 411.185852,462.691284 
	C411.517029,461.198120 411.664856,460.013428 411.918579,458.381836 
	C412.026123,432.288361 412.027740,406.641754 412.288879,380.864319 
	C411.965240,379.817413 411.382080,378.901276 410.798950,377.985168 
	C414.673523,371.076385 420.521179,366.085510 428.235291,365.355042 
	C432.346436,364.965759 437.300903,367.299316 440.938202,369.778168 
	C444.794373,372.406189 448.028320,376.212921 448.049591,381.779022 
	C448.310669,450.121002 448.675659,518.462585 448.994843,586.804382 
	C449.045410,597.629578 449.111267,608.456787 448.950043,619.279785 
	C448.884644,623.671265 448.803741,628.201233 447.722992,632.409546 
	C445.603760,640.661682 433.700104,646.601562 425.254913,644.828979 
	C418.644958,643.441528 415.381653,638.740479 411.978058,633.817627 
	C404.741699,623.351135 397.489441,612.894897 390.149719,602.500793 
	C381.249969,589.897522 372.174957,577.417664 363.321411,564.782288 
	C355.029877,552.949097 346.928589,540.982666 338.391846,528.512207 
	C337.567902,526.229431 337.479736,524.261047 336.556213,522.832825 
	C332.794281,517.014832 328.856262,511.304474 324.789032,505.695221 
	C323.926361,504.505493 322.248077,503.907196 320.664764,502.818726 
	C320.055603,501.700958 319.907623,500.672699 319.372437,499.919647 
	C307.757904,483.578369 296.085815,467.278015 284.462921,450.942627 
	C282.151855,447.694550 279.997162,444.335266 277.059662,439.971466 
	C277.059662,475.049927 277.059662,508.519623 276.773499,542.184937 
	C276.137238,543.645508 275.787140,544.910461 275.348022,546.533203 
	C275.341858,547.612854 275.424683,548.334595 275.413208,549.511230 
	C275.366577,575.302979 275.414307,600.639771 275.328918,626.187500 
	C275.259857,626.886597 275.323853,627.374695 275.341492,628.177490 
	C275.903687,629.331604 276.512207,630.171082 277.120728,631.010559 
z"/>
<path fill="#FBFBFB" opacity="1.000000" stroke="none" 
	d="
M731.648438,570.461365 
	C718.808411,568.283691 710.758789,560.201599 704.033569,550.373901 
	C702.616760,548.303528 702.112671,546.516235 704.942932,544.406372 
	C710.125305,540.543030 714.761963,535.947693 719.952942,531.369324 
	C723.238220,534.994324 726.055725,538.199829 728.978210,541.306580 
	C734.080750,546.730713 750.422241,548.798401 756.607361,544.765503 
	C759.093018,543.144775 760.951416,540.766235 759.870728,537.733215 
	C759.226257,535.924255 757.640320,533.768738 755.958801,533.125916 
	C747.315186,529.821472 738.301819,527.432251 729.798706,523.824890 
	C717.711060,518.696777 708.763489,510.121246 708.284485,496.243622 
	C708.062317,489.806335 709.698364,483.279846 714.082703,477.346191 
	C720.570862,468.565216 729.824280,464.822052 739.259949,462.314362 
	C750.133545,459.424530 761.335693,461.507446 771.295532,467.000854 
	C777.241028,470.280151 782.503357,474.797852 787.993469,478.702484 
	C787.993469,476.378113 788.181030,472.848511 787.939758,469.348480 
	C787.707031,465.973053 789.278320,464.912140 792.314697,464.979736 
	C795.309204,465.046417 798.306335,464.994293 802.005493,464.994293 
	C802.005493,459.525940 801.825928,454.095215 802.120117,448.690247 
	C802.203369,447.160706 803.314514,444.898621 804.561218,444.348877 
	C812.664978,440.775391 820.936096,437.581635 830.093506,433.883575 
	C830.093506,444.943237 830.093506,454.697632 830.093506,464.840637 
	C838.257202,464.840637 845.856079,464.840637 853.726868,464.840637 
	C853.726868,472.960419 853.726868,480.697937 853.726868,488.823242 
	C846.373108,488.823242 838.963745,488.823242 830.529785,488.823242 
	C830.529785,499.266571 830.531067,509.345642 830.528870,519.424683 
	C830.528442,521.550110 830.278625,523.706909 830.555786,525.794617 
	C831.215759,530.765259 831.828552,535.775269 833.020996,540.631775 
	C833.987122,544.566650 838.147339,546.496399 841.978943,545.706177 
	C845.758850,544.926575 849.587402,544.383362 853.734985,543.678589 
	C853.734985,552.260193 853.734985,560.201599 853.734985,568.478333 
	C842.296814,572.074219 830.515930,571.990112 818.890015,569.806213 
	C809.638794,568.068298 802.047852,557.186157 802.016724,547.231079 
	C801.961609,529.571228 802.003662,511.911072 802.005066,494.251038 
	C802.005188,492.623444 802.005066,490.995850 802.005066,489.766235 
	C797.225403,486.921448 791.623291,492.114777 787.402588,487.446442 
	C782.944458,490.528015 778.281372,493.899445 773.454407,497.016968 
	C771.440063,498.317932 769.735413,498.848389 767.463501,496.126862 
	C761.837585,489.387299 752.810791,485.256378 743.338989,488.260956 
	C741.201843,488.938873 739.039185,491.634521 738.325928,493.861755 
	C737.940613,495.065125 740.231201,498.128632 741.939209,498.828491 
	C750.068604,502.159515 758.233887,505.672974 766.715759,507.820160 
	C787.089844,512.977905 793.615967,535.643250 786.406067,551.969604 
	C781.553223,562.958557 772.524353,569.449280 760.892578,570.748596 
	C751.378723,571.811401 741.633728,570.804932 731.648438,570.461365 
z"/>
<path fill="#FDFDFD" opacity="1.000000" stroke="none" 
	d="
M498.997192,505.000000 
	C498.997162,482.001648 499.088226,459.502563 498.912262,437.005585 
	C498.880951,433.004761 500.091705,431.871857 504.042603,431.914215 
	C521.872620,432.105286 539.706909,431.880280 557.537415,432.043060 
	C567.846375,432.137146 577.597107,435.401917 585.100952,442.106018 
	C590.480530,446.912262 594.196106,453.835938 597.833435,460.278229 
	C603.449463,470.224823 602.724487,481.606659 599.521606,491.477081 
	C596.084290,502.070129 591.124268,512.537659 579.302002,518.292419 
	C568.798279,523.405396 558.404053,525.597717 547.015381,524.996277 
	C541.552612,524.707825 536.061951,524.946594 530.185669,524.946594 
	C530.185669,539.611389 530.185669,554.020447 530.185669,568.714233 
	C519.719055,568.714233 509.645966,568.714233 498.997223,568.714233 
	C498.997223,547.691406 498.997223,526.595703 498.997192,505.000000 
M530.001953,465.544678 
	C530.001953,476.616241 530.001953,487.687836 530.001953,498.998138 
	C534.343506,498.998138 538.146729,499.127777 541.936951,498.962219 
	C545.836853,498.791931 549.743469,498.481049 553.613342,497.973785 
	C564.996460,496.481720 568.723633,493.779816 570.643982,483.645752 
	C572.285889,474.981110 569.683777,461.850311 559.769348,459.574005 
	C550.200989,457.377197 540.116638,457.428040 530.001953,456.467072 
	C530.001953,459.938507 530.001953,462.249969 530.001953,465.544678 
z"/>
<path fill="#FCFCFC" opacity="1.000000" stroke="none" 
	d="
M600.003845,525.640015 
	C599.783752,512.872986 600.020752,500.863251 605.796692,489.292480 
	C612.807434,475.247894 623.903015,467.668610 638.547607,463.247498 
	C654.104431,458.550964 668.557312,461.650116 681.384338,469.523895 
	C694.025940,477.283844 701.578430,489.807770 704.033081,504.930878 
	C706.378113,519.378479 705.377625,533.432800 697.911560,546.202271 
	C690.259338,559.290039 679.848999,569.566467 663.729431,570.832214 
	C654.638550,571.546143 645.113342,572.274292 636.346313,570.385437 
	C619.378174,566.729614 608.640808,555.089783 603.094482,538.789490 
	C601.698730,534.687378 601.019165,530.341614 600.003845,525.640015 
M630.999146,504.895325 
	C630.662231,511.144714 629.856750,517.412048 630.094910,523.639404 
	C630.479370,533.690430 635.981934,544.493774 648.505188,546.884949 
	C653.850708,547.905640 664.652161,544.854004 666.969482,541.404541 
	C675.190857,529.166626 676.399170,515.928528 672.002869,502.169464 
	C667.083618,486.773468 651.202759,485.201508 642.246765,490.206909 
	C636.692688,493.310974 633.056702,498.011230 630.999146,504.895325 
z"/>
<path fill="#A6A8A7" opacity="1.000000" stroke="none" 
	d="
M365.185913,503.015137 
	C363.910919,502.026337 362.306488,501.270264 361.416199,500.009766 
	C356.733124,493.379089 352.186371,486.650208 347.706909,479.879608 
	C346.926941,478.700684 346.694855,477.159271 346.084686,475.434998 
	C349.534454,470.301727 353.261780,465.623932 356.649597,460.712006 
	C362.239624,452.606964 367.610352,444.350708 373.669861,436.014252 
	C374.573853,435.929321 374.881470,435.988342 375.100891,436.396362 
	C373.984894,439.158783 372.957092,441.572174 371.591736,444.044800 
	C368.579102,447.997437 365.904022,451.890839 363.365631,455.585266 
	C365.376465,459.318268 367.203064,462.791718 369.106293,466.222717 
	C371.815308,471.106323 374.405426,476.069702 377.390289,480.781128 
	C379.063599,483.422333 381.408813,483.569000 384.184418,481.572998 
	C388.010712,478.821350 392.174255,476.538696 396.119781,474.417053 
	C393.076050,477.563049 390.109375,480.350922 387.134460,483.129974 
	C384.980072,485.142517 382.838348,487.169525 380.649567,489.144165 
	C375.508209,493.782471 370.342041,498.393250 365.185913,503.015137 
z"/>
<path fill="#828484" opacity="1.000000" stroke="none" 
	d="
M311.666870,570.924011 
	C305.880524,581.030273 300.113770,591.147766 294.294037,601.234741 
	C292.834473,603.764404 291.204834,606.195923 289.117065,608.686035 
	C289.182831,606.896057 289.640076,605.027710 290.414703,603.301819 
	C292.562042,598.517456 294.841614,593.792480 297.411621,588.972900 
	C299.116730,586.498047 300.361633,584.017212 301.872040,581.710327 
	C303.661957,578.976624 303.318634,577.059631 300.653046,574.984619 
	C297.006622,572.146118 294.023468,568.374390 290.182770,565.888306 
	C285.919403,563.128662 283.568298,557.101868 277.127869,557.449219 
	C277.095032,554.334473 277.083344,551.662598 277.299347,548.805786 
	C277.332489,547.683228 277.137909,546.745422 277.167908,545.570679 
	C280.253632,543.217041 283.114716,541.100342 286.342102,539.029175 
	C294.492126,540.965759 298.478729,547.722046 304.028687,552.496521 
	C307.179657,555.207214 310.676880,557.515381 313.973145,560.365601 
	C312.419708,563.981873 310.911285,567.237366 309.302704,570.709167 
	C310.394043,570.808350 311.030457,570.866150 311.666870,570.924011 
z"/>
<path fill="#A6A8A7" opacity="1.000000" stroke="none" 
	d="
M285.975830,538.983704 
	C283.114716,541.100342 280.253632,543.217041 276.915955,545.630737 
	C276.105286,546.010315 275.771179,546.092834 275.437073,546.175354 
	C275.787140,544.910461 276.137238,543.645508 277.098053,542.101807 
	C280.240601,539.238098 282.622528,536.483154 285.330170,534.097961 
	C297.150360,523.685486 309.065155,513.380432 320.945587,503.036407 
	C322.248077,503.907196 323.926361,504.505493 324.789032,505.695221 
	C328.856262,511.304474 332.794281,517.014832 336.556213,522.832825 
	C337.479736,524.261047 337.567902,526.229431 338.081421,528.336182 
	C334.105194,534.209534 329.717255,539.467834 326.159058,545.237793 
	C321.129120,553.394226 316.712219,561.928650 311.850037,570.612793 
	C311.030457,570.866150 310.394043,570.808350 309.302704,570.709167 
	C310.911285,567.237366 312.419708,563.981873 314.279236,560.211670 
	C316.082001,557.129089 317.533691,554.561096 319.264374,551.795837 
	C320.176575,550.436401 320.621979,549.110046 321.472504,548.138000 
	C328.609680,539.980347 324.047424,534.121216 316.254120,528.755859 
	C313.577881,526.913452 311.269165,524.537354 308.593109,522.694641 
	C307.592712,522.005676 305.476044,521.468933 304.807129,522.014282 
	C301.376587,524.811218 298.252045,527.983398 294.720703,531.170288 
	C291.605804,533.872009 288.790833,536.427856 285.975830,538.983704 
z"/>
<path fill="#626364" opacity="1.000000" stroke="none" 
	d="
M277.071655,548.990601 
	C277.083344,551.662598 277.095032,554.334473 277.083374,557.887695 
	C277.534454,564.957886 278.008850,571.146790 278.377411,575.955139 
	C285.115234,580.673340 291.092102,584.858643 297.068939,589.044006 
	C294.841614,593.792480 292.562042,598.517456 290.414703,603.301819 
	C289.640076,605.027710 289.182831,606.896057 288.846558,608.894409 
	C288.800232,609.882446 288.488129,610.675598 287.809265,611.888916 
	C287.306000,612.615356 287.169495,612.921509 287.033020,613.227661 
	C286.730560,613.679321 286.428101,614.130981 285.785187,614.951538 
	C285.230469,615.579529 285.091187,615.874084 285.026855,616.204102 
	C285.026855,616.204102 285.036224,616.644287 284.740784,616.975098 
	C284.308075,617.612732 284.170807,617.919556 284.033508,618.226379 
	C284.033539,618.226379 284.036804,618.645996 283.590637,618.836243 
	C282.107300,621.075134 281.070099,623.123779 280.032898,625.172424 
	C280.011047,625.495789 279.862152,625.742493 278.909912,625.963135 
	C277.309753,626.001343 276.385864,625.989014 275.462006,625.976685 
	C275.414307,600.639771 275.366577,575.302979 275.673584,549.505005 
	C276.376068,549.026184 276.723846,549.008423 277.071655,548.990601 
z"/>
<path fill="#999A99" opacity="1.000000" stroke="none" 
	d="
M375.189087,436.047302 
	C374.881470,435.988342 374.573853,435.929321 373.819336,435.718201 
	C385.633148,416.446716 397.893829,397.327362 410.476746,378.096588 
	C411.382080,378.901276 411.965240,379.817413 412.023315,381.100403 
	C411.338654,382.647705 411.179016,383.828186 410.700043,384.948822 
	C409.212524,385.646423 407.674805,386.155121 406.959717,387.217529 
	C405.783508,388.965057 405.350555,391.201233 404.236603,393.004272 
	C398.865631,401.697418 393.371674,410.314606 387.628479,419.123322 
	C384.554169,423.858185 381.772766,428.428467 378.727997,433.182556 
	C377.372772,434.260010 376.280914,435.153656 375.189087,436.047302 
z"/>
<path fill="#828484" opacity="1.000000" stroke="none" 
	d="
M280.382019,625.088257 
	C281.070099,623.123779 282.107300,621.075134 283.516846,619.032654 
	C282.836517,621.027222 281.783844,623.015625 280.382019,625.088257 
z"/>
<path fill="#828484" opacity="1.000000" stroke="none" 
	d="
M275.328918,626.187561 
	C276.385864,625.989014 277.309753,626.001343 278.694519,626.021484 
	C278.994385,626.931580 278.833344,627.833862 278.223938,628.672302 
	C276.979675,628.359985 276.183746,628.111450 275.387817,627.862854 
	C275.323853,627.374695 275.259857,626.886597 275.328918,626.187561 
z"/>
<path fill="#A6A8A7" opacity="1.000000" stroke="none" 
	d="
M275.341492,628.177490 
	C276.183746,628.111450 276.979675,628.359985 277.946472,628.879333 
	C277.969513,629.705200 277.821655,630.260315 277.397278,630.912964 
	C276.512207,630.171082 275.903687,629.331604 275.341492,628.177490 
z"/>
<path fill="#828484" opacity="1.000000" stroke="none" 
	d="
M287.252777,613.090332 
	C287.169495,612.921509 287.306000,612.615356 287.663818,612.185547 
	C287.747620,612.358948 287.610077,612.656006 287.252777,613.090332 
z"/>
<path fill="#828484" opacity="1.000000" stroke="none" 
	d="
M285.240479,616.069580 
	C285.091187,615.874084 285.230469,615.579529 285.656494,615.195557 
	C285.730255,615.358826 285.592163,615.646912 285.240479,616.069580 
z"/>
<path fill="#828484" opacity="1.000000" stroke="none" 
	d="
M284.252747,618.088257 
	C284.170807,617.919556 284.308075,617.612732 284.668091,617.182861 
	C284.751190,617.356506 284.611603,617.653320 284.252747,618.088257 
z"/>
<path fill="#000000" opacity="1.000000" stroke="none" 
	d="
M365.163818,503.362183 
	C370.342041,498.393250 375.508209,493.782471 380.649567,489.144165 
	C382.838348,487.169525 384.980072,485.142517 387.134460,483.129974 
	C390.109375,480.350922 393.076050,477.563049 396.468140,474.403870 
	C397.767242,473.357635 398.651245,472.695251 399.520447,472.013916 
	C403.350128,469.012207 407.175537,466.005005 411.002472,462.999786 
	C411.002472,497.703552 411.002472,532.407349 411.002472,567.111145 
	C410.663910,567.266296 410.325317,567.421509 409.986755,567.576660 
	C403.384705,557.944336 396.874786,548.247192 390.157043,538.696228 
	C381.909363,526.970032 373.488007,515.366028 365.163818,503.362183 
z"/>
<path fill="#000000" opacity="1.000000" stroke="none" 
	d="
M320.664764,502.818726 
	C309.065155,513.380432 297.150360,523.685486 285.330170,534.097961 
	C282.622528,536.483154 280.240601,539.238098 277.384216,541.906128 
	C277.059662,508.519623 277.059662,475.049927 277.059662,439.971466 
	C279.997162,444.335266 282.151855,447.694550 284.462921,450.942627 
	C296.085815,467.278015 307.757904,483.578369 319.372437,499.919647 
	C319.907623,500.672699 320.055603,501.700958 320.664764,502.818726 
z"/>
<path fill="#999A99" opacity="1.000000" stroke="none" 
	d="
M411.185852,462.691284 
	C407.175537,466.005005 403.350128,469.012207 399.520447,472.013916 
	C398.651245,472.695251 397.767242,473.357635 396.541687,474.041962 
	C392.174255,476.538696 388.010712,478.821350 384.184418,481.572998 
	C381.408813,483.569000 379.063599,483.422333 377.390289,480.781128 
	C374.405426,476.069702 371.815308,471.106323 369.106293,466.222717 
	C367.203064,462.791718 365.376465,459.318268 363.365631,455.585266 
	C365.904022,451.890839 368.579102,447.997437 371.914825,444.198120 
	C373.259827,445.002472 374.238098,445.592987 374.583832,446.441284 
	C378.736176,456.628601 385.209564,465.148987 393.496887,473.198212 
	C398.029266,469.441681 402.517090,465.722137 407.169434,461.687317 
	C408.733521,460.484406 410.132996,459.596710 411.617432,458.704102 
	C411.702393,458.699188 411.812683,458.828735 411.812683,458.828735 
	C411.664856,460.013428 411.517029,461.198120 411.185852,462.691284 
z"/>
<path fill="#000000" opacity="1.000000" stroke="none" 
	d="
M411.918579,458.381836 
	C411.812683,458.828735 411.702393,458.699188 411.532104,458.273315 
	C411.250244,454.229645 411.138733,450.611877 411.119873,446.533081 
	C411.148102,425.717590 411.083740,405.363129 411.019348,385.008636 
	C411.179016,383.828186 411.338654,382.647705 411.763824,381.231201 
	C412.027740,406.641754 412.026123,432.288361 411.918579,458.381836 
z"/>
<path fill="#717373" opacity="1.000000" stroke="none" 
	d="
M277.299377,548.805786 
	C276.723846,549.008423 276.376068,549.026184 275.767883,549.050171 
	C275.424683,548.334595 275.341858,547.612854 275.348022,546.533203 
	C275.771179,546.092834 276.105286,546.010315 276.691376,545.867798 
	C277.137909,546.745422 277.332489,547.683228 277.299377,548.805786 
z"/>
<path fill="#000000" opacity="1.000000" stroke="none" 
	d="
M530.001953,465.053040 
	C530.001953,462.249969 530.001953,459.938507 530.001953,456.467072 
	C540.116638,457.428040 550.200989,457.377197 559.769348,459.574005 
	C569.683777,461.850311 572.285889,474.981110 570.643982,483.645752 
	C568.723633,493.779816 564.996460,496.481720 553.613342,497.973785 
	C549.743469,498.481049 545.836853,498.791931 541.936951,498.962219 
	C538.146729,499.127777 534.343506,498.998138 530.001953,498.998138 
	C530.001953,487.687836 530.001953,476.616241 530.001953,465.053040 
z"/>
<path fill="#000000" opacity="1.000000" stroke="none" 
	d="
M631.081543,504.484314 
	C633.056702,498.011230 636.692688,493.310974 642.246765,490.206909 
	C651.202759,485.201508 667.083618,486.773468 672.002869,502.169464 
	C676.399170,515.928528 675.190857,529.166626 666.969482,541.404541 
	C664.652161,544.854004 653.850708,547.905640 648.505188,546.884949 
	C635.981934,544.493774 630.479370,533.690430 630.094910,523.639404 
	C629.856750,517.412048 630.662231,511.144714 631.081543,504.484314 
z"/>
<path fill="#8A8C8B" opacity="1.000000" stroke="none" 
	d="
M407.004883,462.002563 
	C402.517090,465.722137 398.029266,469.441681 393.496887,473.198212 
	C385.209564,465.148987 378.736176,456.628601 374.583832,446.441284 
	C374.238098,445.592987 373.259827,445.002472 372.252380,444.138855 
	C372.957092,441.572174 373.984894,439.158783 375.100891,436.396362 
	C376.280914,435.153656 377.372772,434.260010 379.074036,433.235260 
	C380.472443,434.107880 381.430695,435.021027 382.023895,436.129486 
	C387.414124,446.201599 391.970123,456.866333 402.102936,463.438568 
	C403.627319,462.992004 405.316101,462.497314 407.004883,462.002563 
z"/>
<path fill="#717373" opacity="1.000000" stroke="none" 
	d="
M297.411621,588.972900 
	C291.092102,584.858643 285.115234,580.673340 278.377411,575.955139 
	C278.008850,571.146790 277.534454,564.957886 277.104553,558.330505 
	C283.568298,557.101868 285.919403,563.128662 290.182770,565.888306 
	C294.023468,568.374390 297.006622,572.146118 300.653046,574.984619 
	C303.318634,577.059631 303.661957,578.976624 301.872040,581.710327 
	C300.361633,584.017212 299.116730,586.498047 297.411621,588.972900 
z"/>
<path fill="#8A8C8B" opacity="1.000000" stroke="none" 
	d="
M286.342102,539.029175 
	C288.790833,536.427856 291.605804,533.872009 295.071289,531.201538 
	C304.947815,536.418335 313.506134,542.492615 318.985352,551.993164 
	C317.533691,554.561096 316.082001,557.129089 314.324219,559.850952 
	C310.676880,557.515381 307.179657,555.207214 304.028687,552.496521 
	C298.478729,547.722046 294.492126,540.965759 286.342102,539.029175 
z"/>
<path fill="#999A99" opacity="1.000000" stroke="none" 
	d="
M319.264404,551.795837 
	C313.506134,542.492615 304.947815,536.418335 295.371185,531.055786 
	C298.252045,527.983398 301.376587,524.811218 304.807129,522.014282 
	C305.476044,521.468933 307.592712,522.005676 308.593109,522.694641 
	C311.269165,524.537354 313.577881,526.913452 316.254120,528.755859 
	C324.047424,534.121216 328.609680,539.980347 321.472504,548.138000 
	C320.621979,549.110046 320.176575,550.436401 319.264404,551.795837 
z"/>
<path fill="#717373" opacity="1.000000" stroke="none" 
	d="
M410.700073,384.948822 
	C411.083740,405.363129 411.148102,425.717590 410.690460,446.537476 
	C407.617950,446.289032 403.796539,446.388458 402.731476,444.724030 
	C397.398041,436.389526 392.786591,427.592926 387.921387,418.958771 
	C393.371674,410.314606 398.865631,401.697418 404.236603,393.004272 
	C405.350555,391.201233 405.783508,388.965057 406.959717,387.217529 
	C407.674805,386.155121 409.212524,385.646423 410.700073,384.948822 
z"/>
<path fill="#828484" opacity="1.000000" stroke="none" 
	d="
M387.628479,419.123322 
	C392.786591,427.592926 397.398041,436.389526 402.731476,444.724030 
	C403.796539,446.388458 407.617950,446.289032 410.597839,446.998505 
	C411.138733,450.611877 411.250244,454.229645 411.447144,458.278229 
	C410.132996,459.596710 408.733521,460.484406 407.169434,461.687317 
	C405.316101,462.497314 403.627319,462.992004 402.102936,463.438568 
	C391.970123,456.866333 387.414124,446.201599 382.023895,436.129486 
	C381.430695,435.021027 380.472443,434.107880 379.337402,433.051453 
	C381.772766,428.428467 384.554169,423.858185 387.628479,419.123322 
z"/>
</svg>